<svg width="512" height="512" viewBox="0 0 512 512" fill="none" xmlns="http://www.w3.org/2000/svg">
<path d="M184 156C184 140.516 189.549 125.544 199.64 113.8L224 85.456V68H288V85.456L312.36 113.8C322.452 125.544 328.001 140.516 328 156C328 158.122 327.157 160.157 325.657 161.657C324.157 163.157 322.122 164 320 164C322.122 164 324.157 164.843 325.657 166.343C327.157 167.843 328 169.878 328 172V188C328 190.122 327.157 192.157 325.657 193.657C324.157 195.157 322.122 196 320 196C322.122 196 324.157 196.843 325.657 198.343C327.157 199.843 328 201.878 328 204V220C328 222.122 327.157 224.157 325.657 225.657C324.157 227.157 322.122 228 320 228C322.122 228 324.157 228.843 325.657 230.343C327.157 231.843 328 233.878 328 236V252C328 254.122 327.157 256.157 325.657 257.657C324.157 259.157 322.122 260 320 260C322.122 260 324.157 260.843 325.657 262.343C327.157 263.843 328 265.878 328 268V460C328 464.243 326.314 468.313 323.314 471.314C320.313 474.314 316.243 476 312 476H200C195.757 476 191.687 474.314 188.686 471.314C185.686 468.313 184 464.243 184 460V268C184 265.878 184.843 263.843 186.343 262.343C187.843 260.843 189.878 260 192 260C189.878 260 187.843 259.157 186.343 257.657C184.843 256.157 184 254.122 184 252V236C184 233.878 184.843 231.843 186.343 230.343C187.843 228.843 189.878 228 192 228C189.878 228 187.843 227.157 186.343 225.657C184.843 224.157 184 222.122 184 220V204C184 201.878 184.843 199.843 186.343 198.343C187.843 196.843 189.878 196 192 196C189.878 196 187.843 195.157 186.343 193.657C184.843 192.157 184 190.122 184 188V172C184 169.878 184.843 167.843 186.343 166.343C187.843 164.843 189.878 164 192 164C189.878 164 187.843 163.157 186.343 161.657C184.843 160.157 184 158.122 184 156Z" fill="#A3DFEE"/>
<path d="M308 460V268C308 263.584 305.416 260 302.224 260C305.416 260 308 256.416 308 252V236C308 231.584 305.416 228 302.224 228C305.416 228 308 224.416 308 220V204C308 199.584 305.416 196 302.224 196C305.416 196 308 192.416 308 188V172C308 167.584 305.416 164 302.224 164C305.416 164 308 160.416 308 156C308.177 141.163 304.269 126.564 296.704 113.8L279.104 85.456V68H288V85.456L312.359 113.8C322.451 125.544 328 140.516 328 156C328 158.122 327.157 160.157 325.656 161.657C324.156 163.157 322.121 164 320 164C322.121 164 324.156 164.843 325.656 166.343C327.157 167.843 328 169.878 328 172V188C328 190.122 327.157 192.157 325.656 193.657C324.156 195.157 322.121 196 320 196C322.121 196 324.156 196.843 325.656 198.343C327.157 199.843 328 201.878 328 204V220C328 222.122 327.157 224.157 325.656 225.657C324.156 227.157 322.121 228 320 228C322.121 228 324.156 228.843 325.656 230.343C327.157 231.843 328 233.878 328 236V252C328 254.122 327.157 256.157 325.656 257.657C324.156 259.157 322.121 260 320 260C322.121 260 324.156 260.843 325.656 262.343C327.157 263.843 328 265.878 328 268V460C328 464.243 326.314 468.313 323.313 471.314C320.313 474.314 316.243 476 312 476H296.448C302.824 476 308 468.84 308 460Z" fill="#88CEDC"/>
<path d="M288 460V268C288 263.584 286.408 260 284.44 260C286.408 260 288 256.416 288 252V236C288 231.584 286.408 228 284.44 228C286.408 228 288 224.416 288 220V204C288 199.584 286.408 196 284.44 196C286.408 196 288 192.416 288 188V172C288 167.584 286.408 164 284.44 164C286.408 164 288 160.416 288 156C288.19 141.633 285.837 127.346 281.048 113.8L270.224 85.456V68H279.104V85.456L296.704 113.8C304.269 126.564 308.177 141.163 308 156C308 160.416 305.416 164 302.224 164C305.416 164 308 167.584 308 172V188C308 192.416 305.416 196 302.224 196C305.416 196 308 199.584 308 204V220C308 224.416 305.416 228 302.224 228C305.416 228 308 231.584 308 236V252C308 256.416 305.416 260 302.224 260C305.416 260 308 263.584 308 268V460C308 468.84 302.824 476 296.448 476H280.88C284.808 476 288 468.84 288 460Z" fill="#94DAEB"/>
<path d="M204 156C203.823 141.163 207.731 126.564 215.296 113.8L232.896 85.456V68H241.776V85.456L230.952 113.8C226.163 127.346 223.809 141.633 224 156C224 160.416 225.592 164 227.552 164C225.592 164 224 167.584 224 172V188C224 192.416 225.592 196 227.552 196C225.592 196 224 199.584 224 204V220C224 224.416 225.592 228 227.552 228C225.592 228 224 231.584 224 236V252C224 256.416 225.592 260 227.552 260C225.592 260 224 263.584 224 268V460C224 468.84 227.184 476 231.112 476H215.56C209.176 476 204 468.84 204 460V268C204 263.584 206.584 260 209.776 260C206.584 260 204 256.416 204 252V236C204 231.584 206.584 228 209.776 228C206.584 228 204 224.416 204 220V204C204 199.584 206.584 196 209.776 196C206.584 196 204 192.416 204 188V172C204 167.584 206.584 164 209.776 164C206.584 164 204 160.416 204 156Z" fill="#BDE8F2"/>
<path d="M184 300H328V428H184V300Z" fill="#4E88E8"/>
<path d="M308 300H328V428H308V300Z" fill="#4173DA"/>
<path d="M288 300H308V428H288V300Z" fill="#477DE0"/>
<path d="M204 300H224V428H204V300Z" fill="#6799EB"/>
<path d="M288 36H224C219.582 36 216 39.5817 216 44V60C216 64.4183 219.582 68 224 68H288C292.418 68 296 64.4183 296 60V44C296 39.5817 292.418 36 288 36Z" fill="#4E88E8"/>
<path d="M292 74H220C217.791 74 216 75.7909 216 78C216 80.2091 217.791 82 220 82H292C294.209 82 296 80.2091 296 78C296 75.7909 294.209 74 292 74Z" fill="#CAECF4"/>
<path d="M279.112 36H288C290.122 36 292.157 36.8429 293.657 38.3431C295.157 39.8434 296 41.8783 296 44V60C296 62.1217 295.157 64.1566 293.657 65.6569C292.157 67.1571 290.122 68 288 68H284.888V44C284.888 39.584 282.304 36 279.112 36Z" fill="#4173DA"/>
<path d="M270.224 36H279.104C282.304 36 284.888 39.584 284.888 44V68H273.776V44C273.776 39.584 272.184 36 270.224 36Z" fill="#477DE0"/>
<path d="M232.888 36H241.776C239.816 36 238.224 39.584 238.224 44V68H227.104V44C227.104 39.584 229.696 36 232.888 36Z" fill="#6799EB"/>
<path d="M320 252H192C189.878 252 187.843 251.157 186.343 249.657C184.843 248.157 184 246.122 184 244V252C184 254.122 184.843 256.157 186.343 257.657C187.843 259.157 189.878 260 192 260H320C322.122 260 324.157 259.157 325.657 257.657C327.157 256.157 328 254.122 328 252V244C328 246.122 327.157 248.157 325.657 249.657C324.157 251.157 322.122 252 320 252ZM320 220H192C189.878 220 187.843 219.157 186.343 217.657C184.843 216.157 184 214.122 184 212V220C184 222.122 184.843 224.157 186.343 225.657C187.843 227.157 189.878 228 192 228H320C322.122 228 324.157 227.157 325.657 225.657C327.157 224.157 328 222.122 328 220V212C328 214.122 327.157 216.157 325.657 217.657C324.157 219.157 322.122 220 320 220ZM320 188H192C189.878 188 187.843 187.157 186.343 185.657C184.843 184.157 184 182.122 184 180V188C184 190.122 184.843 192.157 186.343 193.657C187.843 195.157 189.878 196 192 196H320C322.122 196 324.157 195.157 325.657 193.657C327.157 192.157 328 190.122 328 188V180C328 182.122 327.157 184.157 325.657 185.657C324.157 187.157 322.122 188 320 188ZM328 156C328 154.011 327.907 152.029 327.72 150.056C327.267 151.759 326.265 153.264 324.869 154.339C323.473 155.414 321.762 155.998 320 156H192C190.238 155.998 188.527 155.414 187.131 154.339C185.735 153.264 184.733 151.759 184.28 150.056C184.099 152.029 184.005 154.011 184 156C184 158.122 184.843 160.157 186.343 161.657C187.843 163.157 189.878 164 192 164H320C322.122 164 324.157 163.157 325.657 161.657C327.157 160.157 328 158.122 328 156Z" fill="#94DAEB"/>
<path d="M209.776 260H227.552C225.592 260 224 256.416 224 252H204C204 256.416 206.584 260 209.776 260ZM209.776 228H227.552C225.592 228 224 224.416 224 220H204C204 224.416 206.584 228 209.776 228ZM224 188H204C204 192.416 206.584 196 209.776 196H227.552C225.592 196 224 192.416 224 188ZM224 156H204C204 160.416 206.584 164 209.776 164H227.552C225.592 164 224 160.416 224 156Z" fill="#A3DFEE"/>
<path d="M328 252V244C328 246.122 327.158 248.157 325.657 249.657C324.157 251.157 322.122 252 320 252H288C288 256.416 286.408 260 284.44 260H320C322.122 260 324.157 259.157 325.657 257.657C327.158 256.157 328 254.122 328 252ZM328 220V212C328 214.122 327.158 216.157 325.657 217.657C324.157 219.157 322.122 220 320 220H288C288 224.416 286.408 228 284.44 228H320C322.122 228 324.157 227.157 325.657 225.657C327.158 224.157 328 222.122 328 220ZM328 188V180C328 182.122 327.158 184.157 325.657 185.657C324.157 187.157 322.122 188 320 188H288C288 192.416 286.408 196 284.44 196H320C322.122 196 324.157 195.157 325.657 193.657C327.158 192.157 328 190.122 328 188ZM328 156C328 154.011 327.907 152.029 327.72 150.056C327.268 151.759 326.266 153.264 324.87 154.339C323.474 155.414 321.762 155.998 320 156H288C288 160.416 286.408 164 284.44 164H320C322.122 164 324.157 163.157 325.657 161.657C327.158 160.157 328 158.122 328 156Z" fill="#88CEDC"/>
</svg>
