<svg width="512" height="512" viewBox="0 0 512 512" fill="none" xmlns="http://www.w3.org/2000/svg">
<path d="M348.212 446.566V463.872C348.212 476.723 336.743 487.117 322.612 487.117H189.492C175.36 487.117 163.892 476.723 163.892 463.872V446.566H348.212Z" fill="#64A6F3"/>
<path d="M348.212 215.962V446.567H163.892V215.962H348.16H348.212ZM348.212 215.962H163.892C163.892 189.747 194.253 132.967 194.253 132.967V107.623H317.901V132.967C317.901 132.967 348.212 189.747 348.212 215.962Z" fill="#98C9F4"/>
<path d="M289.434 344.371C289.434 362.803 274.483 377.805 256 377.805C237.517 377.805 222.566 362.854 222.566 344.371C222.566 325.888 256 284.723 256 284.723C256 284.723 289.434 325.939 289.434 344.371Z" fill="white"/>
<path d="M199.169 71.936H312.833C321.332 71.936 328.193 78.7968 328.193 87.296V108.902C328.193 117.402 321.332 124.262 312.833 124.262H199.169C190.669 124.262 183.809 117.402 183.809 108.902V87.296C183.809 78.7968 190.669 71.936 199.169 71.936Z" fill="#64A6F3"/>
<path d="M304.231 79.5137C299.981 79.5137 296.551 76.0833 296.551 71.8337C296.551 50.8417 278.375 33.7409 256 33.7409C233.626 33.7409 215.45 50.8417 215.45 71.8337C215.45 76.0833 212.019 79.5137 207.77 79.5137C203.52 79.5137 200.09 76.0833 200.09 71.8337C200.09 42.3425 225.178 18.3809 256 18.3809C286.823 18.3809 311.911 42.3425 311.911 71.8337C311.911 76.0833 308.48 79.5137 304.231 79.5137Z" fill="#64A6F3"/>
</svg>
