<svg width="512" height="512" viewBox="0 0 512 512" fill="none" xmlns="http://www.w3.org/2000/svg">
<path d="M382.643 81.8024C382.643 82.34 382.576 82.8111 382.443 83.3487V83.6149C378.485 99.6559 323.384 112.338 256 112.338C188.615 112.338 133.514 99.6559 129.556 83.6149V83.3487C129.424 82.8438 129.357 82.3242 129.356 81.8024C129.356 64.8911 186.066 51.2002 256 51.2002C325.934 51.2002 382.643 64.8911 382.643 81.8024Z" fill="#98CBFF"/>
<path d="M255.999 112.343C188.615 112.343 133.513 99.6608 129.556 83.6199L169.353 436.04C169.353 436.106 170.562 442.281 182.036 448.456C193.515 454.625 215.126 460.8 255.999 460.8C337.679 460.8 342.645 436.101 342.645 436.035L382.443 83.6147C378.485 99.6557 323.383 112.343 255.999 112.343ZM346.874 218.179L323.051 430.126C315.063 434.422 291.24 440.663 256.004 440.663C220.768 440.663 196.945 434.422 188.958 430.126L165.135 218.179L165.001 217.037C165.001 204.821 205.741 194.954 256.009 194.954C306.278 194.954 347.017 204.821 347.017 217.037L346.874 218.179Z" fill="#80D4FF"/>
<path d="M347.007 217.042L346.874 218.184C344.457 229.791 304.726 239.053 255.999 239.053C207.272 239.053 167.541 229.791 165.124 218.179L164.991 217.037C164.991 204.821 205.731 194.955 255.999 194.955C306.267 194.96 347.007 204.826 347.007 217.042Z" fill="#EDF4F5"/>
<path d="M346.874 218.179L323.051 430.126C315.064 434.422 291.24 440.663 256.005 440.663C220.769 440.663 196.945 434.422 188.958 430.126L165.135 218.179C167.541 229.791 207.272 239.053 255.999 239.053C304.726 239.053 344.458 229.791 346.874 218.179Z" fill="#D5E9EB"/>
</svg>
